#Comment line ignore any data following # character 
#Hierarchical Translation and Rotation (.htr) file 
[Header]	
#Header keywords are followed by a single value 
FileType HTR		#Single word string
DataType HTRS		#Translation followed by rotation and scale data
FileVersion 1		#integer
NumSegments 84		#integer
NumFrames 2		#integer
DataFrameRate 30		#integer, data frame rate in this file
EulerRotationOrder ZYX
CalibrationUnits mm
RotationUnits Degrees
GlobalAxisofGravity Y
BoneLengthAxis Y
ScaleFactor 1.00
[SegmentNames&Hierarchy]
#CHILD	PARENT
MASTER GLOBAL
root MASTER
chest root
L_mid_tent01 root
R_mid_tent01 root
spine01 root
Bip01_Neck chest
L_humerus chest
R_humerus chest
weapon_bone chest
Bip01_Head Bip01_Neck
eye_left_bone Bip01_Head
eye_right_bone Bip01_Head
L_forearm L_humerus
L_front_hand L_forearm
L_weapon_bone L_forearm
L_front_hand01_01 L_front_hand
L_front_hand02_01 L_front_hand
L_front_hand03_01 L_front_hand
L_front_hand01_02 L_front_hand01_01
L_front_hand02_02 L_front_hand02_01
L_front_hand03_02 L_front_hand03_01
R_forearm R_humerus
R_front_hand R_forearm
R_weapon_bone R_forearm
R_front_hand01_01 R_front_hand
R_front_hand02_01 R_front_hand
R_front_hand03_01 R_front_hand
R_front_hand01_02 R_front_hand01_01
R_front_hand02_02 R_front_hand02_01
R_front_hand03_02 R_front_hand03_01
null_rope01_connect L_mid_tent01
Rope1_Seg01 null_rope01_connect
Rope1_Seg02 Rope1_Seg01
Rope1_Seg03 Rope1_Seg02
Rope1_Seg04 Rope1_Seg03
Rope1_Seg05 Rope1_Seg04
Rope1_Seg06 Rope1_Seg05
Rope1_Seg07 Rope1_Seg06
Rope1_Seg09 Rope1_Seg07
L_mid_hand01 Rope1_Seg09
L_mid_hand02 Rope1_Seg09
L_mid_hand03 Rope1_Seg09
null_rope02_connect R_mid_tent01
Rope2_Seg01 null_rope02_connect
Rope2_Seg02 Rope2_Seg01
Rope2_Seg03 Rope2_Seg02
Rope2_Seg04 Rope2_Seg03
Rope2_Seg05 Rope2_Seg04
Rope2_Seg06 Rope2_Seg05
Rope2_Seg07 Rope2_Seg06
Rope2_Seg09 Rope2_Seg07
R_mid_hand01 Rope2_Seg09
R_mid_hand02 Rope2_Seg09
R_mid_hand03 Rope2_Seg09
spine02 spine01
spine03 spine02
pelvis spine03
null_rope03_connect pelvis
null_rope04_connect pelvis
Rope3_Seg01 null_rope03_connect
Rope3_Seg02 Rope3_Seg01
Rope3_Seg03 Rope3_Seg02
Rope3_Seg04 Rope3_Seg03
Rope3_Seg05 Rope3_Seg04
Rope3_Seg06 Rope3_Seg05
Rope3_Seg07 Rope3_Seg06
Rope3_Seg08 Rope3_Seg07
Rope3_Seg09 Rope3_Seg08
R_rear_hand01 Rope3_Seg09
R_rear_hand02 Rope3_Seg09
R_rear_hand03 Rope3_Seg09
Rope4_Seg01 null_rope04_connect
Rope4_Seg02 Rope4_Seg01
Rope4_Seg03 Rope4_Seg02
Rope4_Seg04 Rope4_Seg03
Rope4_Seg05 Rope4_Seg04
Rope4_Seg06 Rope4_Seg05
Rope4_Seg07 Rope4_Seg06
Rope4_Seg08 Rope4_Seg07
Rope4_Seg09 Rope4_Seg08
L_rear_hand01 Rope4_Seg09
L_rear_hand02 Rope4_Seg09
L_rear_hand03 Rope4_Seg09
[BasePosition]
#SegmentName Tx, Ty, Tz, Rx, Ry, Rz, BoneLength
MASTER 0.000000 0.000000 0.000000 -90.000000 0.000000 0.000000 10.000000 
root 0.000000 0.000000 0.000000 0.000000 0.000000 0.000000 10.000000 
chest 0.000000 0.000000 0.000000 0.000000 0.000000 0.000000 10.000000 
L_mid_tent01 0.000000 0.000000 0.000000 0.000000 0.000000 0.000000 10.000000 
R_mid_tent01 0.000000 0.000000 0.000000 0.000000 0.000000 0.000000 10.000000 
spine01 0.000000 0.000000 0.000000 0.000000 0.000000 0.000000 10.000000 
Bip01_Neck 0.000000 0.000000 0.000000 0.000000 0.000000 0.000000 10.000000 
L_humerus 0.000000 0.000000 0.000000 0.000000 0.000000 0.000000 10.000000 
R_humerus 0.000000 0.000000 0.000000 0.000000 0.000000 0.000000 10.000000 
weapon_bone 0.000000 0.000000 0.000000 0.000000 0.000000 0.000000 10.000000 
Bip01_Head 0.000000 0.000000 0.000000 0.000000 0.000000 0.000000 10.000000 
eye_left_bone 0.000000 0.000000 0.000000 0.000000 0.000000 0.000000 10.000000 
eye_right_bone 0.000000 0.000000 0.000000 0.000000 0.000000 0.000000 10.000000 
L_forearm 0.000000 0.000000 0.000000 0.000000 0.000000 0.000000 10.000000 
L_front_hand 0.000000 0.000000 0.000000 0.000000 0.000000 0.000000 10.000000 
L_weapon_bone 0.000000 0.000000 0.000000 0.000000 0.000000 0.000000 10.000000 
L_front_hand01_01 0.000000 0.000000 0.000000 0.000000 0.000000 0.000000 10.000000 
L_front_hand02_01 0.000000 0.000000 0.000000 0.000000 0.000000 0.000000 10.000000 
L_front_hand03_01 0.000000 0.000000 0.000000 0.000000 0.000000 0.000000 10.000000 
L_front_hand01_02 0.000000 0.000000 0.000000 0.000000 0.000000 0.000000 10.000000 
L_front_hand02_02 0.000000 0.000000 0.000000 0.000000 0.000000 0.000000 10.000000 
L_front_hand03_02 0.000000 0.000000 0.000000 0.000000 0.000000 0.000000 10.000000 
R_forearm 0.000000 0.000000 0.000000 0.000000 0.000000 0.000000 10.000000 
R_front_hand 0.000000 0.000000 0.000000 0.000000 0.000000 0.000000 10.000000 
R_weapon_bone 0.000000 0.000000 0.000000 0.000000 0.000000 0.000000 10.000000 
R_front_hand01_01 0.000000 0.000000 0.000000 0.000000 0.000000 0.000000 10.000000 
R_front_hand02_01 0.000000 0.000000 0.000000 0.000000 0.000000 0.000000 10.000000 
R_front_hand03_01 0.000000 0.000000 0.000000 0.000000 0.000000 0.000000 10.000000 
R_front_hand01_02 0.000000 0.000000 0.000000 0.000000 0.000000 0.000000 10.000000 
R_front_hand02_02 0.000000 0.000000 0.000000 0.000000 0.000000 0.000000 10.000000 
R_front_hand03_02 0.000000 0.000000 0.000000 0.000000 0.000000 0.000000 10.000000 
null_rope01_connect 0.000000 0.000000 0.000000 0.000000 0.000000 0.000000 10.000000 
Rope1_Seg01 0.000000 0.000000 0.000000 0.000000 0.000000 0.000000 10.000000 
Rope1_Seg02 0.000000 0.000000 0.000000 0.000000 0.000000 0.000000 10.000000 
Rope1_Seg03 0.000000 0.000000 0.000000 0.000000 0.000000 0.000000 10.000000 
Rope1_Seg04 0.000000 0.000000 0.000000 0.000000 0.000000 0.000000 10.000000 
Rope1_Seg05 0.000000 0.000000 0.000000 0.000000 0.000000 0.000000 10.000000 
Rope1_Seg06 0.000000 0.000000 0.000000 0.000000 0.000000 0.000000 10.000000 
Rope1_Seg07 0.000000 0.000000 0.000000 0.000000 0.000000 0.000000 10.000000 
Rope1_Seg09 0.000000 0.000000 0.000000 0.000000 0.000000 0.000000 10.000000 
L_mid_hand01 0.000000 0.000000 0.000000 0.000000 0.000000 0.000000 10.000000 
L_mid_hand02 0.000000 0.000000 0.000000 0.000000 0.000000 0.000000 10.000000 
L_mid_hand03 0.000000 0.000000 0.000000 0.000000 0.000000 0.000000 10.000000 
null_rope02_connect 0.000000 0.000000 0.000000 0.000000 0.000000 0.000000 10.000000 
Rope2_Seg01 0.000000 0.000000 0.000000 0.000000 0.000000 0.000000 10.000000 
Rope2_Seg02 0.000000 0.000000 0.000000 0.000000 0.000000 0.000000 10.000000 
Rope2_Seg03 0.000000 0.000000 0.000000 0.000000 0.000000 0.000000 10.000000 
Rope2_Seg04 0.000000 0.000000 0.000000 0.000000 0.000000 0.000000 10.000000 
Rope2_Seg05 0.000000 0.000000 0.000000 0.000000 0.000000 0.000000 10.000000 
Rope2_Seg06 0.000000 0.000000 0.000000 0.000000 0.000000 0.000000 10.000000 
Rope2_Seg07 0.000000 0.000000 0.000000 0.000000 0.000000 0.000000 10.000000 
Rope2_Seg09 0.000000 0.000000 0.000000 0.000000 0.000000 0.000000 10.000000 
R_mid_hand01 0.000000 0.000000 0.000000 0.000000 0.000000 0.000000 10.000000 
R_mid_hand02 0.000000 0.000000 0.000000 0.000000 0.000000 0.000000 10.000000 
R_mid_hand03 0.000000 0.000000 0.000000 0.000000 0.000000 0.000000 10.000000 
spine02 0.000000 0.000000 0.000000 0.000000 0.000000 0.000000 10.000000 
spine03 0.000000 0.000000 0.000000 0.000000 0.000000 0.000000 10.000000 
pelvis 0.000000 0.000000 0.000000 0.000000 0.000000 0.000000 10.000000 
null_rope03_connect 0.000000 0.000000 0.000000 0.000000 0.000000 0.000000 10.000000 
null_rope04_connect 0.000000 0.000000 0.000000 0.000000 0.000000 0.000000 10.000000 
Rope3_Seg01 0.000000 0.000000 0.000000 0.000000 0.000000 0.000000 10.000000 
Rope3_Seg02 0.000000 0.000000 0.000000 0.000000 0.000000 0.000000 10.000000 
Rope3_Seg03 0.000000 0.000000 0.000000 0.000000 0.000000 0.000000 10.000000 
Rope3_Seg04 0.000000 0.000000 0.000000 0.000000 0.000000 0.000000 10.000000 
Rope3_Seg05 0.000000 0.000000 0.000000 0.000000 0.000000 0.000000 10.000000 
Rope3_Seg06 0.000000 0.000000 0.000000 0.000000 0.000000 0.000000 10.000000 
Rope3_Seg07 0.000000 0.000000 0.000000 0.000000 0.000000 0.000000 10.000000 
Rope3_Seg08 0.000000 0.000000 0.000000 0.000000 0.000000 0.000000 10.000000 
Rope3_Seg09 0.000000 0.000000 0.000000 0.000000 0.000000 0.000000 10.000000 
R_rear_hand01 0.000000 0.000000 0.000000 0.000000 0.000000 0.000000 10.000000 
R_rear_hand02 0.000000 0.000000 0.000000 0.000000 0.000000 0.000000 10.000000 
R_rear_hand03 0.000000 0.000000 0.000000 0.000000 0.000000 0.000000 10.000000 
Rope4_Seg01 0.000000 0.000000 0.000000 0.000000 0.000000 0.000000 10.000000 
Rope4_Seg02 0.000000 0.000000 0.000000 0.000000 0.000000 0.000000 10.000000 
Rope4_Seg03 0.000000 0.000000 0.000000 0.000000 0.000000 0.000000 10.000000 
Rope4_Seg04 0.000000 0.000000 0.000000 0.000000 0.000000 0.000000 10.000000 
Rope4_Seg05 0.000000 0.000000 0.000000 0.000000 0.000000 0.000000 10.000000 
Rope4_Seg06 0.000000 0.000000 0.000000 0.000000 0.000000 0.000000 10.000000 
Rope4_Seg07 0.000000 0.000000 0.000000 0.000000 0.000000 0.000000 10.000000 
Rope4_Seg08 0.000000 0.000000 0.000000 0.000000 0.000000 0.000000 10.000000 
Rope4_Seg09 0.000000 0.000000 0.000000 0.000000 0.000000 0.000000 10.000000 
L_rear_hand01 0.000000 0.000000 0.000000 0.000000 0.000000 0.000000 10.000000 
L_rear_hand02 0.000000 0.000000 0.000000 0.000000 0.000000 0.000000 10.000000 
L_rear_hand03 0.000000 0.000000 0.000000 0.000000 0.000000 0.000000 10.000000 
#Beginning of Data. Separated by tabs
#Fr	Tx	Ty	Tz	Rx	Ry	Rz	SF
[MASTER]
8 -951.168457 -1216.691772 0.000000 0.000086 0.002346 -85.782173 1544.364014
9 -1014.493713 -1418.658325 0.000000 0.000110 0.002345 -84.633202 1744.072510
[root]
8 -62.822132 34.541874 1073.453735 -101.403793 -8.042089 176.783600 1075.845093
9 -62.822155 20.147991 1050.506226 -102.088608 -8.323346 176.721420 1052.575806
[chest]
8 -84.512650 -34.090519 0.000000 15.467411 -0.745980 156.383545 91.129311
9 -84.512650 -34.090519 0.000000 17.238159 -0.745242 156.385300 91.129311
[L_mid_tent01]
8 23.228750 24.509907 -223.761200 -14.904145 24.472317 -19.783834 226.294907
9 23.228750 24.509907 -223.761200 -17.194220 28.158587 -24.516478 226.294907
[R_mid_tent01]
8 23.228794 24.509907 226.238495 -159.410721 -11.594283 -24.371809 228.744751
9 23.228794 24.509907 226.238495 -159.754974 -3.564540 -21.564707 228.744751
[spine01]
8 -0.361383 -0.195265 0.000000 0.001815 0.001488 11.320962 0.410763
9 -0.361383 -0.195265 0.000000 0.001815 0.001488 11.320962 0.410763
[Bip01_Neck]
8 165.484543 71.581718 0.000119 175.896118 1.177290 24.871183 180.302734
9 165.484543 71.581718 0.000119 175.896118 1.177290 24.871185 180.302734
[L_humerus]
8 -13.983130 -135.272980 -120.471481 165.889069 15.521500 -108.020821 181.680161
9 -13.983130 -135.272980 -120.471481 166.550049 12.883478 -108.078163 181.680161
[R_humerus]
8 -13.983309 -135.273102 125.287651 -166.867325 -5.719303 -103.587364 184.909012
9 -13.983309 -135.273102 125.287651 -167.160156 -2.943529 -103.768799 184.909012
[weapon_bone]
8 235.964890 -300.705902 0.000000 0.000000 -89.951546 -128.212341 382.234833
9 235.964890 -300.705902 0.000000 0.000000 -89.951546 -128.212341 382.234833
[Bip01_Head]
8 201.313751 211.516800 15.929783 18.388014 7.417108 -73.489738 292.438599
9 201.313736 211.516785 15.929792 18.906752 7.070802 -73.833595 292.438599
[eye_left_bone]
8 -24.626970 125.451866 -64.772606 0.000000 -90.000000 -99.840431 143.318359
9 -24.626970 125.451866 -64.772606 0.000000 -90.000000 -99.840431 143.318359
[eye_right_bone]
8 -24.626970 125.451866 64.327362 0.000000 -89.965736 80.156380 143.117676
9 -24.626970 125.451866 64.327362 0.000000 -89.972023 80.156380 143.117676
[L_forearm]
8 322.776093 0.000000 -0.000119 0.000357 -0.002320 -107.506004 322.776093
9 322.776093 0.000000 -0.000119 0.000357 -0.002320 -107.506004 322.776093
[L_front_hand]
8 241.149185 -0.042021 -3.300071 -179.431961 -2.195943 -5.942918 241.171753
9 241.149185 -0.042021 -3.300071 -179.431961 -2.195943 -5.942917 241.171753
[L_weapon_bone]
8 156.183838 0.000000 0.000000 0.000014 0.000007 0.000001 156.183838
9 156.183838 0.000000 0.000000 0.000014 0.000007 0.000001 156.183838
[L_front_hand01_01]
8 86.095154 20.947098 -0.655860 0.139491 -0.584553 24.181791 88.609184
9 86.095154 20.947098 -0.655860 0.139491 -0.584553 24.181786 88.609184
[L_front_hand02_01]
8 86.935165 -11.437475 24.513514 119.190460 -21.905655 -12.119137 91.046425
9 86.935165 -11.437475 24.513514 119.190460 -21.905651 -12.119137 91.046425
[L_front_hand03_01]
8 86.637497 -14.123976 -20.424902 -120.437630 20.554031 -14.327168 90.126129
9 86.637497 -14.123976 -20.424902 -120.437630 20.554033 -14.327168 90.126129
[L_front_hand01_02]
8 71.020905 -0.000179 0.000030 0.000334 -0.002323 -106.379684 71.020905
9 71.020905 -0.000179 0.000030 0.000334 -0.002323 -106.379700 71.020905
[L_front_hand02_02]
8 71.020927 -0.000119 0.000060 0.000334 -0.002323 -106.379684 71.020927
9 71.020927 -0.000119 0.000060 0.000334 -0.002323 -106.379700 71.020927
[L_front_hand03_02]
8 71.020905 -0.000060 0.000060 0.000334 -0.002323 -106.379684 71.020905
9 71.020905 -0.000060 0.000060 0.000334 -0.002323 -106.379700 71.020905
[R_forearm]
8 322.776428 -0.000060 0.000030 0.196737 0.083011 -114.368637 322.776428
9 322.776428 -0.000060 0.000030 0.196737 0.083011 -114.368637 322.776428
[R_front_hand]
8 238.847015 -0.006795 2.210259 -0.341870 1.692706 -0.151780 238.857239
9 238.847015 -0.006795 2.210259 -0.341870 1.692705 -0.151779 238.857239
[R_weapon_bone]
8 155.664093 0.002503 -0.000030 0.003487 0.001180 -90.988930 155.664078
9 155.664093 0.002503 -0.000030 0.003487 0.001180 -90.988930 155.664078
[R_front_hand01_01]
8 87.624611 14.231146 22.918642 -119.218056 -22.033409 12.303375 91.683487
9 87.624611 14.231146 22.918642 -119.218056 -22.033405 12.303373 91.683487
[R_front_hand02_01]
8 89.356956 14.367283 -19.491137 120.545517 20.947186 14.823009 92.579636
9 89.356956 14.367283 -19.491137 120.545532 20.947186 14.823011 92.579636
[R_front_hand03_01]
8 87.286232 -22.307278 -0.143439 -0.231628 -0.392922 -24.567768 90.091743
9 87.286232 -22.307278 -0.143439 -0.231628 -0.392922 -24.567768 90.091743
[R_front_hand01_02]
8 71.020905 0.000060 0.000119 0.002323 -0.000334 106.381714 71.020905
9 71.020905 0.000060 0.000119 0.002323 -0.000334 106.381714 71.020905
[R_front_hand02_02]
8 71.020844 -0.000030 -0.000119 0.002323 -0.000334 106.381714 71.020836
9 71.020844 -0.000030 -0.000119 0.002323 -0.000334 106.381714 71.020836
[R_front_hand03_02]
8 71.020905 0.000000 0.000030 0.002323 -0.000334 106.381714 71.020905
9 71.020905 0.000000 0.000030 0.002323 -0.000334 106.381714 71.020905
[null_rope01_connect]
8 328.732483 0.000000 -0.000238 113.549042 58.180058 51.077328 328.732483
9 328.732483 0.000000 -0.000238 108.288322 55.728718 50.513058 328.732483
[Rope1_Seg01]
8 -0.000009 0.000029 0.000036 25.957335 6.200238 68.076691 0.000047
9 -0.000010 0.000028 0.000041 31.224279 6.987460 65.744781 0.000050
[Rope1_Seg02]
8 139.999863 -0.000179 0.000000 2.716410 0.071172 -1.470919 139.999863
9 139.999863 -0.000179 0.000000 -0.656074 0.268846 0.019901 139.999863
[Rope1_Seg03]
8 139.999924 0.000060 -0.000060 5.296514 0.005779 -2.444041 139.999924
9 139.999924 0.000060 -0.000060 -1.101095 0.442249 0.041925 139.999924
[Rope1_Seg04]
8 139.999924 -0.000060 -0.000119 -1.204815 3.683764 -3.798631 139.999924
9 139.999924 -0.000060 -0.000119 -15.507747 2.581779 6.203897 139.999924
[Rope1_Seg05]
8 139.999832 0.000119 -0.000060 80.354500 -12.624944 -21.339495 139.999832
9 139.999832 0.000119 -0.000060 57.276829 4.360462 -18.111946 139.999832
[Rope1_Seg06]
8 139.999954 0.000119 -0.000060 1.605368 -3.302477 2.395036 139.999954
9 139.999954 0.000119 -0.000060 46.601612 -10.748600 -6.989528 139.999954
[Rope1_Seg07]
8 139.999985 0.000060 0.000000 1.085047 -1.489283 0.749295 139.999985
9 139.999985 0.000060 0.000000 4.421742 -2.424246 0.398154 139.999985
[Rope1_Seg09]
8 121.602913 0.000119 -0.000089 -89.793175 -1.359789 0.847147 121.602913
9 121.602913 0.000119 -0.000089 -89.793175 -1.359789 0.847147 121.602913
[L_mid_hand01]
8 103.859421 1.038730 8.195221 106.855484 -31.239275 -9.461397 104.187431
9 103.859421 1.038730 8.195221 106.855484 -31.239275 -9.461397 104.187431
[L_mid_hand02]
8 105.572853 -4.139662 -10.864139 -142.331345 25.752670 -28.774628 106.211075
9 105.572853 -4.139662 -10.864139 -142.331345 25.752670 -28.774628 106.211075
[L_mid_hand03]
8 104.641464 17.579376 -3.913581 -16.122810 9.734291 34.223598 106.179977
9 104.641464 17.579376 -3.913581 -16.122810 9.734291 34.223598 106.179977
[null_rope02_connect]
8 328.732849 0.000179 -0.000119 91.986839 -70.245201 149.585999 328.732849
9 328.732849 0.000179 -0.000119 107.039131 -76.135071 134.898987 328.732849
[Rope2_Seg01]
8 -0.000116 -0.000117 -0.000153 87.635651 -21.169273 70.610031 0.000225
9 -0.000118 -0.000112 -0.000153 88.157211 -23.226046 68.640450 0.000223
[Rope2_Seg02]
8 139.999741 -0.000060 -0.000119 -0.217920 1.708375 0.201208 139.999756
9 139.999741 -0.000060 -0.000119 -0.225099 2.509401 0.036307 139.999756
[Rope2_Seg03]
8 140.000107 0.000030 0.000000 -0.309989 2.148937 0.262961 140.000107
9 140.000107 0.000030 0.000000 -0.352855 3.226876 0.060987 140.000107
[Rope2_Seg04]
8 139.999802 0.000000 -0.000060 -0.464418 2.807644 0.361321 139.999802
9 139.999802 0.000000 -0.000060 -0.603039 4.310994 0.107641 139.999802
[Rope2_Seg05]
8 139.999985 -0.000060 0.000119 -0.807126 3.853955 0.523801 139.999985
9 139.999985 -0.000060 0.000119 -1.160629 6.040715 0.217778 139.999985
[Rope2_Seg06]
8 139.999893 -0.000030 -0.000119 -2.970406 9.664426 2.372238 139.999893
9 139.999893 -0.000030 -0.000119 -5.745710 16.754011 2.038174 139.999893
[Rope2_Seg07]
8 139.999893 0.000060 -0.000060 -9.476545 18.020388 5.891430 139.999893
9 139.999893 0.000060 -0.000060 -14.010028 19.530809 4.224743 139.999893
[Rope2_Seg09]
8 121.338966 0.000089 -0.000060 33.793236 -1.359788 -0.847141 121.338966
9 121.338966 0.000089 -0.000060 33.793236 -1.359788 -0.847141 121.338966
[R_mid_hand01]
8 104.680779 11.144459 -10.335981 -41.523792 25.424656 28.595957 105.778534
9 104.680779 11.144459 -10.335981 -41.523792 25.424656 28.595957 105.778534
[R_mid_hand02]
8 104.070427 2.443552 8.231699 72.847389 -32.746803 10.013901 104.424065
9 104.070427 2.443552 8.231699 72.847389 -32.746803 10.013901 104.424065
[R_mid_hand03]
8 106.028137 -11.221827 -5.996406 -167.901306 10.259192 -37.009720 106.788818
9 106.028137 -11.221827 -5.996406 -167.901306 10.259192 -37.009720 106.788818
[spine02]
8 129.756927 0.001550 0.000119 0.001147 -1.797838 -7.854275 129.756927
9 129.756927 0.001550 0.000119 0.001147 -1.797837 -7.854274 129.756927
[spine03]
8 79.115631 0.000000 -0.000119 1.459971 -2.848092 23.765963 79.115631
9 79.115631 0.000000 -0.000119 1.459971 -2.848092 23.765963 79.115631
[pelvis]
8 169.435242 0.051022 0.000000 -0.000005 0.000003 -4.322055 169.435257
9 169.435242 0.051022 0.000000 -0.000005 0.000003 -4.322055 169.435257
[null_rope03_connect]
8 -1.257226 -2.466202 137.391083 -158.810608 80.262657 95.951370 137.418976
9 -1.257226 -2.466202 137.391083 -155.530945 79.261345 99.587303 137.418976
[null_rope04_connect]
8 -1.259640 -2.480268 -137.844437 -158.810608 80.262657 95.951370 137.872513
9 -1.259640 -2.480268 -137.844437 -155.530945 79.261345 99.587303 137.872513
[Rope3_Seg01]
8 -0.000011 -0.000060 0.000036 -129.864136 -3.257631 133.657394 0.000071
9 -0.000008 -0.000059 0.000041 -132.553879 -7.827526 134.713058 0.000072
[Rope3_Seg02]
8 139.999924 -0.000119 0.000060 -0.844282 5.310198 4.191741 139.999924
9 139.999924 -0.000119 0.000060 -0.188378 3.632164 4.311517 139.999924
[Rope3_Seg03]
8 139.999924 -0.000119 0.000119 -0.567315 7.446596 6.123318 139.999924
9 139.999924 -0.000119 0.000119 -0.061703 5.008560 6.026397 139.999924
[Rope3_Seg04]
8 139.999924 0.000119 0.000000 0.284217 10.702411 9.327439 139.999924
9 139.999924 0.000119 0.000000 0.257356 7.054821 8.806555 139.999924
[Rope3_Seg05]
8 139.999924 -0.000238 0.000060 3.675763 16.960228 17.091772 139.999924
9 139.999924 -0.000238 0.000060 1.678423 10.363419 16.981249 139.999924
[Rope3_Seg06]
8 139.999893 -0.000119 -0.000060 3.446811 10.035250 7.436549 139.999893
9 139.999893 -0.000119 -0.000060 2.350147 10.217599 10.456334 139.999893
[Rope3_Seg07]
8 139.999771 0.000060 -0.000119 2.011501 0.262023 -4.115030 139.999771
9 139.999771 0.000060 -0.000119 3.848745 6.654152 -2.972072 139.999771
[Rope3_Seg08]
8 139.999985 -0.000060 0.000000 1.499017 -0.627521 -4.112756 139.999985
9 139.999985 -0.000060 0.000000 3.040658 4.473684 -2.692102 139.999985
[Rope3_Seg09]
8 90.185997 -0.000179 -0.000060 89.793228 -1.359877 -0.847183 90.185997
9 90.185997 -0.000179 -0.000060 89.793228 -1.359877 -0.847183 90.185997
[R_rear_hand01]
8 103.366196 -6.073594 -10.757982 -161.551193 16.666374 -30.088671 104.101845
9 103.366196 -6.073594 -10.757982 -161.551193 16.666374 -30.088671 104.101845
[R_rear_hand02]
8 100.509819 12.039542 -7.992327 -34.280552 19.289745 28.875523 101.543350
9 100.509819 12.039542 -7.992327 -34.280552 19.289745 28.875523 101.543350
[R_rear_hand03]
8 101.539970 5.215704 5.435467 83.366440 -30.933914 7.284830 101.819031
9 101.539970 5.215704 5.435467 83.366440 -30.933914 7.284830 101.819031
[Rope4_Seg01]
8 0.000023 0.000108 0.000000 17.484560 -0.687644 150.369171 0.000111
9 0.000015 0.000107 0.000000 10.700115 -10.563719 146.907242 0.000109
[Rope4_Seg02]
8 139.999985 0.000060 0.000119 20.527227 -9.102758 -22.854219 139.999985
9 139.999985 0.000060 0.000119 19.098322 -2.360001 -21.828978 139.999985
[Rope4_Seg03]
8 139.999924 0.000000 -0.000238 9.063271 -17.605196 -21.461184 139.999924
9 139.999924 0.000000 -0.000238 9.605716 -9.038798 -20.446373 139.999924
[Rope4_Seg04]
8 139.999985 0.000000 0.000119 3.257969 -15.128614 -16.328705 139.999985
9 139.999985 0.000000 0.000119 4.107242 -7.740407 -16.515602 139.999985
[Rope4_Seg05]
8 139.999802 -0.000060 -0.000119 0.142860 -6.144042 -5.490854 139.999802
9 139.999802 -0.000060 -0.000119 0.589497 -4.960504 -6.239659 139.999802
[Rope4_Seg06]
8 139.999924 0.000000 0.000060 0.221747 -2.519389 -0.784834 139.999924
9 139.999924 0.000000 0.000060 0.186658 -4.458939 -1.064803 139.999924
[Rope4_Seg07]
8 139.999802 0.000000 0.000000 0.724585 -0.860405 2.548531 139.999802
9 139.999802 0.000000 0.000000 0.514626 -5.695529 2.432371 139.999802
[Rope4_Seg08]
8 139.999924 0.000000 0.000119 -0.849124 -0.819014 2.748045 139.999924
9 139.999924 0.000000 0.000119 -0.957216 -4.803692 1.026914 139.999924
[Rope4_Seg09]
8 90.185791 0.000060 0.000060 -135.617828 2.228885 0.850567 90.185791
9 90.185791 0.000060 0.000060 -135.617828 2.228885 0.850567 90.185791
[L_rear_hand01]
8 101.696655 -8.392275 -7.654577 -34.454281 -18.946800 151.655121 102.329041
9 101.696655 -8.392275 -7.654577 -34.454281 -18.946800 151.655121 102.329041
[L_rear_hand02]
8 102.726799 -1.568258 5.773216 83.407906 30.330435 172.796509 102.900848
9 102.726799 -1.568258 5.773216 83.407906 30.330435 172.796509 102.900848
[L_rear_hand03]
8 104.552910 9.721220 -10.420293 -161.379868 -16.473232 -150.512238 105.519653
9 104.552910 9.721220 -10.420293 -161.379868 -16.473232 -150.512238 105.519653
